<svg width="20" height="20" viewBox="0 0 20 20" fill="none" xmlns="http://www.w3.org/2000/svg">
<g clip-path="url(#clip0_2_81)">
<path d="M16.6667 0.833334H14.1667C13.9457 0.833334 13.7337 0.921131 13.5775 1.07741C13.4212 1.23369 13.3334 1.44565 13.3334 1.66667C13.3334 1.88768 13.4212 2.09964 13.5775 2.25592C13.7337 2.4122 13.9457 2.5 14.1667 2.5H16.6667C16.8877 2.5 17.0997 2.5878 17.256 2.74408C17.4122 2.90036 17.5 3.11232 17.5 3.33333V5.83333C17.5 6.05435 17.5878 6.26631 17.7441 6.42259C17.9004 6.57887 18.1124 6.66667 18.3334 6.66667C18.5544 6.66667 18.7664 6.57887 18.9226 6.42259C19.0789 6.26631 19.1667 6.05435 19.1667 5.83333V3.33333C19.1667 1.95271 18.0473 0.833334 16.6667 0.833334ZM5.83337 0.833334H3.33337C1.95275 0.833334 0.833374 1.95271 0.833374 3.33333V5.83333C0.833374 6.05435 0.921171 6.26631 1.07745 6.42259C1.23373 6.57887 1.44569 6.66667 1.66671 6.66667C1.88772 6.66667 2.09968 6.57887 2.25596 6.42259C2.41224 6.26631 2.50004 6.05435 2.50004 5.83333V3.33333C2.50004 3.11232 2.58784 2.90036 2.74412 2.74408C2.9004 2.5878 3.11236 2.5 3.33337 2.5H5.83337C6.05439 2.5 6.26635 2.4122 6.42263 2.25592C6.57891 2.09964 6.66671 1.88768 6.66671 1.66667C6.66671 1.44565 6.57891 1.23369 6.42263 1.07741C6.26635 0.921131 6.05439 0.833334 5.83337 0.833334ZM18.3334 13.3333C18.1124 13.3333 17.9004 13.4211 17.7441 13.5774C17.5878 13.7337 17.5 13.9457 17.5 14.1667V16.6667C17.5 17.1271 17.1271 17.5 16.6667 17.5H14.1667C13.9457 17.5 13.7337 17.5878 13.5775 17.7441C13.4212 17.9004 13.3334 18.1123 13.3334 18.3333C13.3334 18.5543 13.4212 18.7663 13.5775 18.9226C13.7337 19.0789 13.9457 19.1667 14.1667 19.1667H16.6667C18.0473 19.1667 19.1667 18.0473 19.1667 16.6667V14.1667C19.1667 13.9457 19.0789 13.7337 18.9226 13.5774C18.7664 13.4211 18.5544 13.3333 18.3334 13.3333ZM5.83337 17.5H3.33337C3.11236 17.5 2.9004 17.4122 2.74412 17.2559C2.58784 17.0996 2.50004 16.8877 2.50004 16.6667V14.1667C2.50179 14.0561 2.48153 13.9464 2.44044 13.8437C2.39935 13.7411 2.33825 13.6477 2.26071 13.5689C2.18316 13.4901 2.09072 13.4276 1.98876 13.3849C1.88679 13.3422 1.77736 13.3202 1.66681 13.3202C1.55627 13.3202 1.44683 13.3422 1.34487 13.3849C1.24291 13.4276 1.15046 13.4901 1.07292 13.5689C0.99537 13.6477 0.934274 13.7411 0.893184 13.8437C0.852095 13.9464 0.831835 14.0561 0.833582 14.1667V16.6667C0.833582 18.0473 1.95296 19.1667 3.33358 19.1667H5.83358C6.0546 19.1666 6.26655 19.0788 6.42281 18.9225C6.57907 18.7662 6.66684 18.5542 6.66681 18.3332C6.66678 18.1122 6.57896 17.9003 6.42266 17.744C6.26636 17.5877 6.05439 17.5 5.83337 17.5Z" fill="#2E2E30"/>
</g>
<defs>
<clipPath id="clip0_2_81">
<rect width="20" height="20" fill="white"/>
</clipPath>
</defs>
</svg>
