<svg width="144" height="54" viewBox="0 0 144 54" fill="none" xmlns="http://www.w3.org/2000/svg">
<path d="M56.584 33.5448C56.584 21.7607 58.0031 18.354 69.3342 18.354C72.0032 18.354 75.2344 18.6985 77.1338 19.1305V25.2604C74.0336 25.0034 72.3962 24.8721 71.4465 24.8721C65.6281 24.8721 65.5026 25.6049 65.5026 33.5502C65.5026 41.4956 65.6336 42.2283 71.4465 42.2283C73.2149 42.2283 75.6711 42.0533 77.3085 41.8401V48.0575C75.3709 48.4457 72.0087 48.7465 69.3396 48.7465C58.0086 48.7465 56.5894 45.3343 56.5894 33.5502L56.584 33.5448Z" fill="#1D1D1B"/>
<path d="M81.6167 18.693H96.7412C104.628 18.693 105.834 22.0614 105.834 28.4483C105.834 32.205 105.36 35.568 102.216 37.1264L106.44 48.391H97.3088L93.9903 38.2037H90.5025V48.391H81.6276V18.693H81.6167ZM93.4172 32.03C96.6047 32.03 96.9486 31.6418 96.9486 28.5796C96.9486 25.5174 96.8613 25.0854 93.4172 25.0854H90.4862V32.0355H93.4172V32.03Z" fill="#1D1D1B"/>
<path d="M110.394 18.693H122.5L127.069 34.3595H127.412L131.894 18.693H144V48.391H135.512V30.477H135.125L130.043 48.391H124.099L119.018 30.477H118.63V48.391H110.399V18.693H110.394Z" fill="#1D1D1B"/>
<path d="M25.0355 42.3593H47.8295C45.0114 49.1991 38.3588 54 30.6046 54C20.3001 54 11.9434 45.5166 11.9434 35.0561C11.9434 24.5956 20.3001 16.1123 30.6046 16.1123C32.0654 16.1123 33.4835 16.2853 34.853 16.6066L23.526 39.894C22.9721 41.0309 23.7877 42.3655 25.0355 42.3655V42.3593Z" fill="url(#paint0_linear_21_232)"/>
<path d="M49.2648 35.0562C49.2648 36.3846 49.1309 37.6821 48.8752 38.9302H30.9504C29.8122 38.9302 29.0636 37.713 29.5688 36.675L38.6681 17.9659C44.9373 21.0182 49.2587 27.5244 49.2587 35.0562H49.2648Z" fill="url(#paint1_linear_21_232)"/>
<path d="M19.3861 11.3766L18.7775 5.23503C19.6418 4.67895 20.1713 3.65947 20.0617 2.55966C19.9096 0.996458 18.5401 -0.140418 17.0063 0.0140485C15.4725 0.168515 14.3526 1.55872 14.5048 3.11575C14.6143 4.21555 15.3325 5.11146 16.282 5.48218L16.9515 12.2602C15.716 12.8286 14.5778 13.5392 13.6344 14.3239C13.0075 14.8491 12.3927 15.4669 11.8206 16.1528L5.57583 13.6566C5.48453 12.6247 4.83327 11.6794 3.81682 11.2716C2.3804 10.697 0.761389 11.4137 0.195343 12.8719C-0.370703 14.33 0.335333 15.9736 1.77175 16.5482C2.7882 16.956 3.89595 16.715 4.65676 16.023L10.3172 18.2844C8.24781 21.8124 7.60264 26.1746 10.8954 29.1033C13.47 21.0092 20.8226 15.0962 29.575 14.7873C27.5908 10.8638 23.3241 10.2954 19.3801 11.3705L19.3861 11.3766ZM3.54293 14.2188C3.37859 14.639 2.91602 14.8429 2.49605 14.6822C2.08216 14.5154 1.88131 14.0458 2.03956 13.6195C2.20389 13.1993 2.67256 12.9955 3.08644 13.1623C3.50032 13.3291 3.70118 13.7987 3.54293 14.2188ZM17.3654 3.65329C16.9211 3.69654 16.5316 3.36907 16.4829 2.92421C16.4403 2.47316 16.7629 2.07773 17.2072 2.0283C17.6515 1.98505 18.041 2.31252 18.0897 2.75738C18.1323 3.20843 17.8097 3.60386 17.3654 3.65329Z" fill="url(#paint2_linear_21_232)"/>
<path d="M25.0359 42.3593H47.83C45.0119 49.1991 38.3593 54 30.6051 54C20.3006 54 11.9438 45.5166 11.9438 35.0561C11.9438 24.5956 20.3006 16.1123 30.6051 16.1123C32.0659 16.1123 33.484 16.2853 34.8535 16.6066L23.5265 39.894C22.9726 41.0309 23.7882 42.3655 25.0359 42.3655V42.3593Z" fill="url(#paint3_radial_21_232)"/>
<path d="M49.2648 35.0561C49.2648 36.3845 49.1309 37.682 48.8752 38.9301H30.9504C29.8122 38.9301 29.0636 37.7129 29.5688 36.6749L38.6681 17.9658C44.9373 21.0181 49.2587 27.5242 49.2587 35.0561H49.2648Z" fill="url(#paint4_radial_21_232)"/>
<path d="M19.3861 11.3766L18.7775 5.23503C19.6418 4.67895 20.1713 3.65947 20.0617 2.55966C19.9096 0.996458 18.5401 -0.140418 17.0063 0.0140485C15.4725 0.168515 14.3526 1.55872 14.5048 3.11575C14.6143 4.21555 15.3325 5.11146 16.282 5.48218L16.9515 12.2602C15.716 12.8286 14.5778 13.5392 13.6344 14.3239C13.0075 14.8491 12.3927 15.4669 11.8206 16.1528L5.57583 13.6566C5.48453 12.6247 4.83327 11.6794 3.81682 11.2716C2.3804 10.697 0.761389 11.4137 0.195343 12.8719C-0.370703 14.33 0.335333 15.9736 1.77175 16.5482C2.7882 16.956 3.89595 16.715 4.65676 16.023L10.3172 18.2844C8.24781 21.8124 7.60264 26.1746 10.8954 29.1033C13.47 21.0092 20.8226 15.0962 29.575 14.7873C27.5908 10.8638 23.3241 10.2954 19.3801 11.3705L19.3861 11.3766ZM3.54293 14.2188C3.37859 14.639 2.91602 14.8429 2.49605 14.6822C2.08216 14.5154 1.88131 14.0458 2.03956 13.6195C2.20389 13.1993 2.67256 12.9955 3.08644 13.1623C3.50032 13.3291 3.70118 13.7987 3.54293 14.2188ZM17.3654 3.65329C16.9211 3.69654 16.5316 3.36907 16.4829 2.92421C16.4403 2.47316 16.7629 2.07773 17.2072 2.0283C17.6515 1.98505 18.041 2.31252 18.0897 2.75738C18.1323 3.20843 17.8097 3.60386 17.3654 3.65329Z" fill="url(#paint5_radial_21_232)"/>
<defs>
<linearGradient id="paint0_linear_21_232" x1="21.5601" y1="50.7994" x2="36.6347" y2="25.3365" gradientUnits="userSpaceOnUse">
<stop stop-color="#2B2751"/>
<stop offset="1" stop-color="#7B1FA2"/>
</linearGradient>
<linearGradient id="paint1_linear_21_232" x1="28.5523" y1="54.9454" x2="43.6331" y2="29.4764" gradientUnits="userSpaceOnUse">
<stop stop-color="#2B2751"/>
<stop offset="1" stop-color="#7B1FA2"/>
</linearGradient>
<linearGradient id="paint2_linear_21_232" x1="0.718784" y1="38.4578" x2="15.7995" y2="12.995" gradientUnits="userSpaceOnUse">
<stop stop-color="#2B2751"/>
<stop offset="1" stop-color="#7B1FA2"/>
</linearGradient>
<radialGradient id="paint3_radial_21_232" cx="0" cy="0" r="1" gradientUnits="userSpaceOnUse" gradientTransform="translate(43.1555 4.12567) scale(34.7662 35.2926)">
<stop offset="0.42" stop-color="#FF6F61"/>
<stop offset="1" stop-color="#252850" stop-opacity="0"/>
</radialGradient>
<radialGradient id="paint4_radial_21_232" cx="0" cy="0" r="1" gradientUnits="userSpaceOnUse" gradientTransform="translate(43.1539 4.12557) scale(34.7662 35.2926)">
<stop offset="0.42" stop-color="#FF6F61"/>
<stop offset="1" stop-color="#252850" stop-opacity="0"/>
</radialGradient>
<radialGradient id="paint5_radial_21_232" cx="0" cy="0" r="1" gradientUnits="userSpaceOnUse" gradientTransform="translate(43.154 4.12287) scale(34.7662 35.2926)">
<stop offset="0.42" stop-color="#FF6F61"/>
<stop offset="1" stop-color="#252850" stop-opacity="0"/>
</radialGradient>
</defs>
</svg>
