<svg width="146" height="53" viewBox="0 0 146 53" fill="none" xmlns="http://www.w3.org/2000/svg">
<path d="M54.4707 16.987H57.258V25.7585H61.5583V28.011H54.4707V16.987Z" fill="#2E2E30"/>
<path d="M65.5667 16.987H69.3627L72.8667 28.011H70.0529L69.3893 25.838H65.4605L64.8234 28.011H62.0627L65.5667 16.987ZM68.7787 23.7445L67.4514 19.3985H67.3453L66.0445 23.7445H68.7787Z" fill="#2E2E30"/>
<path d="M76.6362 16.987H80.4322L83.9362 28.011H81.1224L80.4587 25.838H76.53L75.8929 28.011H73.1322L76.6362 16.987ZM79.8482 23.7445L78.5209 19.3985H78.4147L77.114 23.7445H79.8482Z" fill="#2E2E30"/>
<path d="M86.6703 24.2215L83.0071 16.987H85.874L88.0773 21.6245H88.1834L90.3602 16.987H93.174L89.4576 24.2215V28.011H86.6703V24.2215Z" fill="#2E2E30"/>
<path d="M94.3154 16.987H97.1823L100.766 22.8965H100.846V16.987H103.527V28.011H100.899L97.0496 21.545H96.97V28.011H94.2889V16.987H94.3154Z" fill="#2E2E30"/>
<path d="M109.632 22.499C109.632 18.0735 110.19 16.8545 114.331 16.8545C115.286 16.8545 116.454 16.9605 117.145 17.146V19.16C116.136 19.054 115.419 19.0275 115.021 19.0275C112.579 19.0275 112.446 19.2925 112.446 22.5255C112.446 25.732 112.579 26.0235 115.021 26.0235C115.685 26.0235 116.614 25.9705 117.224 25.891V27.9315C116.507 28.064 115.286 28.17 114.357 28.17C110.163 28.1435 109.632 26.9245 109.632 22.499Z" fill="#2E2E30"/>
<path d="M119.029 16.987H124.498C127.391 16.987 127.842 18.2855 127.842 20.538C127.842 21.7835 127.656 23.188 126.382 23.7445L128.055 28.011H125.161L123.781 24.1155C123.728 24.1155 123.675 24.1155 123.648 24.1155H121.843V28.011H119.056V16.987H119.029ZM123.409 22.0485C124.896 22.0485 125.028 21.7835 125.028 20.591C125.028 19.372 124.949 19.107 123.409 19.107H121.816V22.0485H123.409Z" fill="#2E2E30"/>
<path d="M129.807 16.987H133.629L135.833 23.5325H135.939L138.142 16.987H141.965V28.011H139.283V20.856H139.177L136.788 28.011H134.903L132.541 20.856H132.408V28.011H129.807V16.987Z" fill="#2E2E30"/>
<path d="M54.6831 35.378H56.2227V36.6765H56.3554C56.6474 36.173 57.1783 35.272 58.6649 35.272C60.6027 35.272 62.0096 36.7825 62.0096 39.3795C62.0096 41.95 60.6027 43.5135 58.6649 43.5135C57.2049 43.5135 56.6209 42.639 56.3554 42.109H56.2758V46.349H54.6831V35.378ZM58.2933 42.1885C59.6736 42.1885 60.3903 40.9695 60.3903 39.353C60.3903 37.7895 59.6736 36.597 58.2933 36.597C56.9394 36.597 56.2227 37.6835 56.2227 39.353C56.2227 41.049 56.966 42.1885 58.2933 42.1885Z" fill="#2E2E30"/>
<path d="M69.6282 43.3545H68.062V33.417H69.6282V43.3545Z" fill="#2E2E30"/>
<path d="M78.6802 38.717C79.2111 38.6905 80.4056 38.611 80.7772 38.611L80.7507 37.975C80.7507 37.074 80.1933 36.544 79.1314 36.544C78.2023 36.544 77.6449 36.968 77.4856 37.551H75.9194C76.0787 36.226 77.2998 35.272 79.1845 35.272C80.4587 35.272 82.3169 35.749 82.3169 38.0545V43.3545H80.7772V42.268H80.7242C80.4056 42.8775 79.6889 43.54 78.3616 43.54C76.8485 43.54 75.654 42.6655 75.654 41.102C75.6805 39.3 77.2467 38.823 78.6802 38.717ZM78.7333 42.2945C80.0074 42.2945 80.7772 41.4465 80.7772 40.4925V39.7505L78.8925 39.883C77.8573 39.9625 77.2202 40.3335 77.2202 41.1285C77.2202 41.897 77.8573 42.2945 78.7333 42.2945Z" fill="#2E2E30"/>
<path d="M92.4838 36.6235H90.838V40.996C90.838 41.897 91.2892 42.056 91.7936 42.056C92.006 42.056 92.3776 42.0295 92.59 42.003V43.381C92.3776 43.4075 92.0325 43.434 91.6078 43.434C90.3602 43.434 89.2718 42.745 89.2718 41.314V36.597H88.1303V35.3515H89.2983V33.4435H90.8645V35.3515H92.5103V36.6235H92.4838Z" fill="#2E2E30"/>
<path d="M102.359 37.3125H100.633V43.3545H99.0671V37.3125H97.8194V36.067H99.0671V35.1395C99.0671 33.7085 99.9696 32.9135 101.456 32.9135C101.828 32.9135 102.226 32.9665 102.518 33.0195V34.318C102.226 34.265 102.014 34.265 101.854 34.265C101.005 34.265 100.633 34.6095 100.633 35.378V36.067H102.359V37.3125Z" fill="#2E2E30"/>
<path d="M107.615 39.406C107.615 36.915 109.075 35.272 111.358 35.272C113.614 35.272 115.074 36.915 115.074 39.406C115.074 41.8705 113.614 43.5135 111.358 43.5135C109.075 43.5135 107.615 41.8705 107.615 39.406ZM113.481 39.406C113.481 37.869 112.791 36.5705 111.358 36.5705C109.898 36.5705 109.181 37.869 109.181 39.406C109.181 40.943 109.871 42.215 111.358 42.215C112.791 42.215 113.481 40.943 113.481 39.406Z" fill="#2E2E30"/>
<path d="M121.126 35.378H122.639V36.65H122.719C123.011 35.802 123.807 35.272 124.763 35.272C124.949 35.272 125.267 35.2985 125.427 35.2985V36.809C125.294 36.7825 124.922 36.7295 124.604 36.7295C123.515 36.7295 122.692 37.4715 122.692 38.5315V43.4075H121.126V35.378Z" fill="#2E2E30"/>
<path d="M131.134 35.378H132.647V36.6765H132.727C133.072 35.7755 133.842 35.272 134.903 35.272C135.965 35.272 136.709 35.802 137.054 36.6765H137.133C137.505 35.802 138.381 35.272 139.522 35.272C140.956 35.272 141.991 36.173 141.991 38.0015V43.3545H140.425V38.1605C140.425 37.1005 139.735 36.6235 138.912 36.6235C137.903 36.6235 137.319 37.3125 137.319 38.2665V43.3545H135.753V38.0545C135.753 37.18 135.142 36.6235 134.293 36.6235C133.417 36.6235 132.647 37.3655 132.647 38.4255V43.3545H131.134V35.378Z" fill="#2E2E30"/>
<path d="M25.8037 40.0345C24.679 40.0345 23.9868 38.9098 24.5059 37.8716L34.4552 17.5404C33.244 17.2809 32.0328 17.1078 30.7351 17.1078C21.7374 17.1078 14.3836 24.5482 14.3836 33.6323C14.3836 42.803 21.6509 50.1568 30.7351 50.1568C37.4833 50.1568 43.3664 46.0041 45.7888 39.948H25.8037V40.0345Z" fill="url(#paint0_radial_2_349)"/>
<path d="M47 33.6322C47 27.057 43.1933 21.3469 37.7428 18.6649L29.7834 35.0164C29.3508 35.8816 29.9564 37.0063 30.9946 37.0063H46.6539C46.9135 35.9681 47 34.7569 47 33.6322Z" fill="url(#paint1_radial_2_349)"/>
<path d="M29.7831 15.8963C28.0527 12.4357 24.3326 12.0031 20.8719 12.8683L20.3528 7.50428C21.1315 6.98518 21.5641 6.12003 21.4775 5.16835C21.3045 3.87062 20.0933 2.91894 18.7955 3.00546C17.4113 3.17849 16.4596 4.38971 16.6327 5.68745C16.7192 6.63912 17.3248 7.41776 18.1899 7.76383L18.7955 13.6469C17.6708 14.166 16.7192 14.7716 15.9405 15.4637C15.4214 15.8963 14.8158 16.5019 14.3832 17.021L8.93275 14.8581C8.84623 13.993 8.32714 13.1278 7.37546 12.7817C6.16424 12.2626 4.69347 12.9548 4.17438 14.166C3.65528 15.4637 4.34741 16.848 5.55863 17.3671C6.42379 17.7131 7.37546 17.5401 8.06759 16.9345L12.999 18.9244C11.1822 22.0389 10.6631 25.8456 13.5181 28.3546C15.681 21.3468 22.0831 16.1559 29.7831 15.8963ZM18.2765 5.60093C18.2765 5.16835 18.536 4.82229 18.8821 4.82229C19.3146 4.82229 19.5742 5.08184 19.6607 5.4279C19.6607 5.86048 19.4012 6.20654 19.0551 6.20654C18.709 6.20654 18.363 5.947 18.2765 5.60093ZM7.0294 15.4637C6.85637 15.8098 6.5103 15.9828 6.16424 15.8963C5.81818 15.7233 5.64515 15.3772 5.73166 14.9446C5.90469 14.5986 6.25076 14.4255 6.59682 14.5121C6.94288 14.6851 7.11591 15.0312 7.0294 15.4637Z" fill="url(#paint2_radial_2_349)"/>
<defs>
<radialGradient id="paint0_radial_2_349" cx="0" cy="0" r="1" gradientUnits="userSpaceOnUse" gradientTransform="translate(37.9426 18.5827) scale(32.98 32.98)">
<stop stop-color="#3E1067"/>
<stop offset="0.7797" stop-color="#160047"/>
<stop offset="1"/>
</radialGradient>
<radialGradient id="paint1_radial_2_349" cx="0" cy="0" r="1" gradientUnits="userSpaceOnUse" gradientTransform="translate(37.9426 18.5825) scale(32.98 32.98)">
<stop stop-color="#3E1067"/>
<stop offset="0.7797" stop-color="#160047"/>
<stop offset="1"/>
</radialGradient>
<radialGradient id="paint2_radial_2_349" cx="0" cy="0" r="1" gradientUnits="userSpaceOnUse" gradientTransform="translate(28.7398 14.5685) scale(33.5808)">
<stop stop-color="#3E1067"/>
<stop offset="0.7797" stop-color="#160047"/>
<stop offset="1"/>
</radialGradient>
</defs>
</svg>
