<svg width="20" height="18" viewBox="0 0 20 18" fill="none" xmlns="http://www.w3.org/2000/svg">
<g clip-path="url(#clip0_2_245)">
<path d="M0.104468 16.5514L6.19947 4.1045C6.45397 3.58466 7.05397 3.32913 7.60947 3.50258C7.61697 3.50502 7.62447 3.50746 7.63247 3.50991C8.31397 3.72439 8.64397 4.49145 8.33147 5.1305L3.83347 14.3162L3.73597 14.515C3.73597 14.515 3.73597 14.516 3.73497 14.5165C3.71847 14.5463 3.70297 14.5766 3.68797 14.6064H3.68747C3.53297 14.9186 3.44597 15.2684 3.44597 15.6387C3.44597 16.9408 4.52097 17.9961 5.84647 17.9961H0.994468V18C0.258468 18 -0.223032 17.2173 0.104468 16.5514Z" fill="url(#paint0_linear_2_245)"/>
<path d="M3.44592 15.6387C3.44592 15.2684 3.53292 14.9186 3.68742 14.6069H3.68792C3.70292 14.5766 3.71842 14.5463 3.73492 14.5165C3.73542 14.516 3.73542 14.5155 3.73592 14.515L3.83342 14.3162C3.81592 14.3518 3.80092 14.388 3.78842 14.4241C3.58842 15.0051 4.01692 15.6373 4.64942 15.6373H13.4429C14.2559 15.6373 14.8264 16.4327 14.5609 17.1953L14.5524 17.2183C14.3909 17.6839 13.9494 17.9961 13.4539 17.9961H5.84642C4.52092 17.9961 3.44592 16.9408 3.44592 15.6387Z" fill="url(#paint1_linear_2_245)"/>
<path d="M19.8955 1.44862L13.8005 13.8955C13.546 14.4153 12.946 14.6709 12.3905 14.4974C12.383 14.495 12.3755 14.4925 12.3675 14.4901C11.686 14.2756 11.356 13.5085 11.6685 12.8695L16.1665 3.68384L16.264 3.48499C16.264 3.48499 16.264 3.48401 16.265 3.48352C16.2815 3.45372 16.297 3.42343 16.312 3.39363H16.3125C16.467 3.08143 16.554 2.73161 16.554 2.36127C16.554 1.05923 15.479 0.00390858 14.1535 0.00390858H19.0055V0C19.7415 0 20.223 0.782694 19.8955 1.44862Z" fill="url(#paint2_linear_2_245)"/>
<path d="M16.554 2.36131C16.554 2.73165 16.467 3.08147 16.3125 3.39318H16.312C16.297 3.42347 16.2815 3.45376 16.265 3.48356C16.2645 3.48405 16.2645 3.48454 16.264 3.48503L16.1665 3.68388C16.184 3.64821 16.199 3.61206 16.2115 3.5759C16.4115 2.99499 15.983 2.36278 15.3505 2.36278H6.55701C5.74401 2.36278 5.17351 1.56738 5.43901 0.804719L5.44751 0.781756C5.60901 0.316146 6.05051 0.00394821 6.54601 0.00394821H14.1535C15.479 0.00394821 16.554 1.05927 16.554 2.36131Z" fill="url(#paint3_linear_2_245)"/>
</g>
<defs>
<linearGradient id="paint0_linear_2_245" x1="2.11147" y1="18.6615" x2="9.1803" y2="4.25434" gradientUnits="userSpaceOnUse">
<stop stop-color="#72D1E0"/>
<stop offset="1" stop-color="#3C5BF0"/>
</linearGradient>
<linearGradient id="paint1_linear_2_245" x1="14.6089" y1="16.1561" x2="6.88242" y2="16.1561" gradientUnits="userSpaceOnUse">
<stop stop-color="#B2D77F"/>
<stop offset="1" stop-color="#EA70AC"/>
</linearGradient>
<linearGradient id="paint2_linear_2_245" x1="17.8885" y1="-0.661528" x2="10.8192" y2="13.7452" gradientUnits="userSpaceOnUse">
<stop stop-color="#72D1E0"/>
<stop offset="1" stop-color="#3C5BF0"/>
</linearGradient>
<linearGradient id="paint3_linear_2_245" x1="5.39051" y1="1.84391" x2="13.1175" y2="1.84391" gradientUnits="userSpaceOnUse">
<stop stop-color="#B2D77F"/>
<stop offset="1" stop-color="#EA70AC"/>
</linearGradient>
<clipPath id="clip0_2_245">
<rect width="20" height="18" fill="white"/>
</clipPath>
</defs>
</svg>
