<svg width="20" height="20" viewBox="0 0 20 20" fill="none" xmlns="http://www.w3.org/2000/svg">
<g clip-path="url(#clip0_2_94)">
<path d="M19.2731 10.8275C19.1206 10.7247 18.9411 10.6692 18.7572 10.6677C18.5732 10.6663 18.3929 10.719 18.2388 10.8194C17.1799 11.5084 15.9433 11.8741 14.68 11.8719C11.0675 11.8719 8.1275 8.9325 8.1275 5.31938C8.1275 4.04937 8.49187 2.81937 9.18 1.76125C9.27978 1.60691 9.33206 1.42668 9.33036 1.2429C9.32865 1.05912 9.27304 0.879888 9.17042 0.727422C9.0678 0.574957 8.92269 0.455967 8.75307 0.385208C8.58345 0.31445 8.3968 0.295037 8.21625 0.329375C3.63625 1.21437 0.3125 5.24813 0.3125 9.91938C0.3125 15.3056 4.69375 19.6875 10.08 19.6875C14.7519 19.6875 18.785 16.3631 19.6706 11.7825C19.7054 11.6019 19.6863 11.415 19.6156 11.2452C19.5449 11.0753 19.4258 10.9301 19.2731 10.8275ZM10.08 17.8125C5.72813 17.8125 2.1875 14.2719 2.1875 9.91875C2.1875 6.84375 3.97062 4.11062 6.63125 2.81687C6.37961 3.62719 6.25192 4.47089 6.2525 5.31938C6.2525 9.96625 10.0338 13.7469 14.68 13.7469C15.5363 13.7469 16.3794 13.6181 17.1831 13.3675C16.5343 14.6993 15.5244 15.8221 14.2686 16.608C13.0128 17.3939 11.5615 17.8112 10.08 17.8125Z" fill="#2E2E30"/>
</g>
<defs>
<clipPath id="clip0_2_94">
<rect width="20" height="20" fill="white"/>
</clipPath>
</defs>
</svg>
